<?xml version="1.0" encoding="UTF-8"?>
<svg width="871" height="871" fill="#747474" version="1.0" xmlns="http://www.w3.org/2000/svg" xmlns:cc="http://creativecommons.org/ns#" xmlns:dc="http://purl.org/dc/elements/1.1/" xmlns:rdf="http://www.w3.org/1999/02/22-rdf-syntax-ns#">
 <metadata>
  <rdf:RDF>
   <cc:Work rdf:about="">
    <dc:format>image/svg+xml</dc:format>
    <dc:type rdf:resource="http://purl.org/dc/dcmitype/StillImage"/>
    <dc:title/>
   </cc:Work>
  </rdf:RDF>
 </metadata>
 <g transform="matrix(54.85 0 0 -54.85 -2404.4 4815.9)">
  <path d="m56.105 79.364c-0.018 2.008 1.64 2.972 1.715 3.019-0.933 1.365-2.385 1.552-2.903 1.574-1.235 0.125-2.411-0.727-3.037-0.727s-1.594 0.709-2.618 0.689c-1.348-0.02-2.589-0.783-3.283-1.989-1.399-2.427-0.357-6.024 1.005-7.994 0.667-0.963 1.461-2.048 2.505-2.008 1.006 0.04 1.386 0.65 2.6 0.65s1.556-0.65 2.619-0.631c1.081 0.021 1.767 0.984 2.429 1.95 0.764 1.118 1.08 2.2 1.098 2.257-0.024 0.01-2.108 0.809-2.13 3.21"/>
 </g>
 <path d="m563.44 139.34c30.386-36.804 50.9-87.98 45.25-138.99-43.774 1.7571-96.756 29.181-128.19 65.985-28.137 32.528-52.82 84.634-46.131 134.6 48.818 3.7847 98.675-24.85 129.07-61.6"/>
</svg>
